#!OML:ASF F:\VICON\USERDATA\INSTALL\Justin_Nancy\Justin_Nancy.ASF
:FULLY-SPECIFIED
:DEGREES
399
root 0.398198 17.5845 12.2166 -1.98055 -0.630897 -1.73769
lowerback 6.44084 -0.266428 1.07798
upperback 0.609315 -0.187231 2.87397
thorax -2.97783 -0.0907903 2.37832
lowerneck -16.8705 -3.25645 -9.81902
upperneck 20.7845 -3.23531 5.78539
head 9.6238 -1.638 3.22326
rclavicle -3.55328e-015 -3.89618e-014
rhumerus -34.6663 -23.5074 -72.768
rradius 24.6787
rwrist 11.1748
rhand -16.5898 13.9509
rfingers 7.12502
rthumb 9.63117 -15.8089
lclavicle -3.55328e-015 -3.89618e-014
lhumerus -26.1827 6.05836 85.5197
lradius 30.4025
lwrist -8.95731
lhand -14.6367 23.5515
lfingers 7.12502
lthumb 11.5151 53.2152
rfemur -8.39039 3.15481 28.3922
rtibia 21.2985
rfoot -6.70866 -2.71811
rtoes 5.52995
lfemur -15.5134 0.715205 -16.6949
ltibia 67.0958
lfoot 4.46494 -5.82644
ltoes -9.31308
400
root 0.395769 17.5883 12.3928 -1.86868 -0.919807 -1.61047
lowerback 6.40735 -0.145578 1.05923
upperback 0.512525 -0.0293828 2.75526
thorax -3.06431 -0.0122258 2.25217
lowerneck -16.8072 -3.24142 -9.76906
upperneck 21.0371 -3.24163 5.78169
head 9.70042 -1.64174 3.21723
rclavicle -5.61567e-015 -8.74653e-015
rhumerus -34.051 -22.9233 -73.3139
rradius 25.201
rwrist 10.751
rhand -16.2279 13.8803
rfingers 7.12502
rthumb 9.98027 -15.8631
lclavicle -5.61567e-015 -8.74653e-015
lhumerus -26.743 6.38652 85.385
lradius 30.2476
lwrist -8.88491
lhand -15.4074 23.3936
lfingers 7.12502
lthumb 10.7718 53.0974
rfemur -7.82424 3.14016 28.2969
rtibia 21.297
rfoot -7.47632 -2.62996
rtoes 6.63521
lfemur -16.9193 0.916385 -16.8388
ltibia 67.2405
lfoot 3.03018 -5.18276
ltoes -8.26521
401
root 0.396831 17.5848 12.568 -1.82993 -1.20749 -1.54156
lowerback 6.23802 -0.0870683 1.12096
upperback 0.641559 0.0419874 2.68737
thorax -2.83828 0.0214788 2.13888
lowerneck -17.1466 -3.27901 -9.73401
upperneck 21.2797 -3.24062 5.63728
head 9.84708 -1.6533 3.16261
rclavicle 2.55935e-015 1.03368e-014
rhumerus -33.0743 -22.1724 -73.9923
rradius 25.7867
rwrist 10.2808
rhand -15.8626 13.4608
rfingers 7.12502
rthumb 10.3327 -16.2654
lclavicle 2.55935e-015 1.03368e-014
lhumerus -26.9363 7.17659 85.1578
lradius 30.0884
lwrist -9.49435
lhand -14.6638 24.4818
lfingers 7.12502
lthumb 11.489 54.147
rfemur -7.26435 3.18918 28.268
rtibia 21.5167
rfoot -8.19454 -2.62631
rtoes 6.5798
lfemur -18.1495 1.07524 -16.9698
ltibia 67.2507
lfoot 1.71314 -4.6355
ltoes -6.58327
402
root 0.403778 17.5653 12.7303 -1.7574 -1.47805 -1.47134
lowerback 6.22297 -0.00420999 1.27661
upperback 0.681286 0.158218 2.58325
thorax -2.79143 0.0769313 1.9333
lowerneck -17.0915 -3.32121 -9.75379
upperneck 21.1296 -3.27871 5.56995
head 9.78662 -1.67882 3.13438
rclavicle 1.88845e-015 6.36111e-015
rhumerus -32.2551 -21.705 -74.4845
rradius 26.2172
rwrist 9.84216
rhand -15.7923 13.0831
rfingers 7.12502
rthumb 10.4005 -16.6397
lclavicle 1.88845e-015 6.36111e-015
lhumerus -27.1435 8.17888 84.8321
lradius 29.8866
lwrist -10.6636
lhand -13.0162 25.9638
lfingers 7.12502
lthumb 13.0776 55.5338
rfemur -6.81554 3.137 28.1958
rtibia 21.8737
rfoot -8.95596 -2.54236
rtoes 7.07176
lfemur -19.4342 1.29985 -17.1118
ltibia 67.1798
lfoot 0.736185 -4.39745
ltoes -5.69589
403
root 0.406245 17.5435 12.8895 -1.57637 -1.74583 -1.58944
lowerback 6.21539 0.0761606 1.5237
upperback 0.658146 0.281152 2.5359
thorax -2.81265 0.135085 1.73497
lowerneck -17.051 -3.31188 -9.70907
upperneck 20.9765 -3.28363 5.59413
head 9.72461 -1.67315 3.13264
rclavicle 5.56597e-015 -2.70347e-014
rhumerus -31.4312 -21.0682 -74.9906
rradius 26.4815
rwrist 9.25581
rhand -16.0027 13.6267
rfingers 7.12502
rthumb 10.1976 -16.1062
lclavicle 5.56597e-015 -2.70347e-014
lhumerus -27.4341 8.75388 84.6217
lradius 29.7263
lwrist -10.5693
lhand -14.8413 24.8538
lfingers 7.12502
lthumb 11.3178 54.5284
rfemur -6.50524 3.26532 28.3692
rtibia 22.2205
rfoot -9.65327 -2.59371
rtoes 6.783
lfemur -20.8499 1.49332 -17.0036
ltibia 67.0222
lfoot -0.444125 -4.26669
ltoes -5.41368
404
root 0.403684 17.5215 13.0498 -1.44301 -2.13315 -1.83679
lowerback 6.44487 0.171364 1.77652
upperback 0.493021 0.440233 2.58573
thorax -3.11341 0.210667 1.63108
lowerneck -17.0856 -3.23995 -9.70879
upperneck 21.2195 -3.18448 5.58512
head 9.80821 -1.63119 3.14684
rclavicle -2.28602e-015 -1.27222e-014
rhumerus -30.8821 -20.0296 -75.45
rradius 26.9029
rwrist 8.67729
rhand -16.175 13.4903
rfingers 7.12502
rthumb 10.0313 -16.2507
lclavicle -2.28602e-015 -1.27222e-014
lhumerus -28.27 9.41293 84.4331
lradius 29.9371
lwrist -9.89446
lhand -14.1901 25.1849
lfingers 7.12502
lthumb 11.9458 54.824
rfemur -6.16473 3.54973 28.7235
rtibia 22.5455
rfoot -10.3522 -2.74845
rtoes 6.63348
lfemur -22.1243 1.75601 -16.7138
ltibia 66.6866
lfoot -2.00062 -3.97764
ltoes -6.20188
